<?xml version="1.0" standalone="no"?><!DOCTYPE svg PUBLIC "-//W3C//DTD SVG 1.1//EN" "http://www.w3.org/Graphics/SVG/1.1/DTD/svg11.dtd"><svg t="1615513299986" class="icon" viewBox="0 0 1024 1024" version="1.1" xmlns="http://www.w3.org/2000/svg" p-id="3486" xmlns:xlink="http://www.w3.org/1999/xlink" width="48" height="48"><defs><style type="text/css"></style></defs><path d="M656.761905 938.666667 367.238095 938.666667C291.748571 938.666667 222.47619 938.666667 222.47619 843.52 222.47619 667.885714 282.48381 477.775238 463.75619 370.773333L560.24381 370.773333C741.241905 477.775238 801.52381 650.422857 801.52381 843.52 801.52381 938.666667 732.251429 938.666667 656.761905 938.666667ZM535.43619 515.474286 535.43619 465.92 486.582857 465.92 486.582857 515.169524C436.327619 523.001905 415.238095 558.96381 415.238095 595.047619 415.238095 717.379048 561.432381 654.933333 561.432381 719.908571 561.432381 731.398095 546.224762 751.36 512 751.36 454.979048 751.36 453.729524 716.099048 453.729524 716.099048L415.420952 736.487619C415.420952 736.487619 410.727619 787.565714 486.064762 797.226667L486.064762 846.506667 535.466667 846.506667 535.466667 797.104762C586.727619 788.845714 607.725714 753.127619 607.725714 717.379048 607.725714 595.047619 463.36 656.213333 463.36 595.047619 463.36 584.838095 460.434286 554.270476 507.580952 554.270476 570.849524 554.270476 568.96 595.047619 568.96 595.047619L608.091429 574.659048C608.091429 574.659048 607.512381 525.68381 535.43619 515.474286ZM560.24381 323.2 463.75619 323.2C407.131429 198.308571 367.238095 196.449524 367.238095 180.48 367.238095 164.510476 369.462857 132.906667 391.527619 132.906667L415.207619 132.906667 415.207619 104.350476C415.207619 93.866667 424.380952 85.333333 435.687619 85.333333L588.769524 85.333333C600.07619 85.333333 609.219048 93.866667 609.219048 104.350476L609.219048 132.906667 631.344762 132.906667C653.44 132.906667 656.761905 162.651429 656.761905 180.48 656.761905 198.308571 616.868571 198.308571 560.24381 323.2Z" p-id="3487"></path></svg>