<?xml version="1.0" standalone="no"?><!DOCTYPE svg PUBLIC "-//W3C//DTD SVG 1.1//EN" "http://www.w3.org/Graphics/SVG/1.1/DTD/svg11.dtd"><svg t="1719486634170" class="icon" viewBox="0 0 1024 1024" version="1.1" xmlns="http://www.w3.org/2000/svg" p-id="5425" xmlns:xlink="http://www.w3.org/1999/xlink" width="128" height="128"><path d="M96 224a128 128 0 0 1 128-128h576a128 128 0 0 1 128 128v341.333333a128 128 0 0 1-128 128h-256v170.666667h170.666667a32 32 0 0 1 0 64h-405.333334a32 32 0 0 1 0-64h170.666667v-170.666667h-256a128 128 0 0 1-128-128v-341.333333z m511.445333 104.149333L597.333333 325.461333a21.333333 21.333333 0 0 0-11.050666 41.216l61.866666 16.554667a21.333333 21.333333 0 0 0 26.069334-15.061333l16.597333-61.824a21.333333 21.333333 0 1 0-41.216-11.050667l-3.754667 14.037333a149.418667 149.418667 0 0 0-271.701333 29.397334c-3.925333 12.373333 6.144 23.936 19.114667 23.936h1.28c10.112 0 18.645333-7.253333 22.272-16.725334a106.666667 106.666667 0 0 1 190.592-17.792zM528.810667 512c-38.442667 0-72.149333-20.352-90.88-50.816l10.026666 2.688a21.333333 21.333333 0 1 0 11.050667-41.216l-61.866667-16.554667a21.333333 21.333333 0 0 0-26.069333 15.061334l-16.597333 61.824a21.333333 21.333333 0 0 0 41.216 11.050666l3.754666-14.037333a149.418667 149.418667 0 0 0 271.701334-29.397333c3.925333-12.373333-6.144-23.936-19.114667-23.936h-1.28c-10.112 0-18.645333 7.253333-22.272 16.725333A106.666667 106.666667 0 0 1 528.810667 512z" fill="#14132A" p-id="5426"></path></svg>