<?xml version="1.0" standalone="no"?><!DOCTYPE svg PUBLIC "-//W3C//DTD SVG 1.1//EN" "http://www.w3.org/Graphics/SVG/1.1/DTD/svg11.dtd"><svg t="1616135229541" class="icon" viewBox="0 0 1024 1024" version="1.1" xmlns="http://www.w3.org/2000/svg" p-id="2522" xmlns:xlink="http://www.w3.org/1999/xlink" width="48" height="48"><defs><style type="text/css"></style></defs><path d="M908.31 929.301c-13.592 0-26.229-5.332-35.602-15.017L739.424 781.229c-26.807 20.489-55.466 36.966-85.293 49.029-46.732 19.48-95.979 29.355-146.363 29.355-111.716 0-217.525-49.288-290.298-135.228-15.559-18.041-19.812-38.707-11.619-56.64 7.63-16.648 24.663-26.984 44.452-26.984 18.4 0 36.674 8.961 51.457 25.233 52.741 57.953 127.829 91.194 206.007 91.194 37.039 0 73.055-7.107 107.044-21.128 34.227-14.113 64.69-34.382 90.546-60.237 26.811-26.995 47.349-57.739 61.026-91.361l0.033-0.082c13.812-32.945 21.114-69.797 21.114-106.572 0-36.036-6.9-71.551-20.502-105.558-13.796-33.919-33.848-64.434-59.581-90.65-28.591-27.979-58.86-48.204-92.537-61.833l-0.183-0.076c-32.617-14.11-68.605-21.264-106.961-21.264-109.74 0-209.859 65.457-255.066 166.76-8.367 18.709-26.248 30.328-46.668 30.328-17.529 0-32.745-8.112-42.846-22.841l-0.126-0.188c-9.62-14.883-10.981-32.222-3.835-48.824l0.038-0.085c60.372-136.032 200.426-227.43 348.505-227.43 50.399 0 99.668 9.801 146.435 29.131 45.787 18.935 88.526 47.534 123.599 82.704 36.044 36.429 63.137 76.811 82.853 123.476 19.323 46.949 29.107 96.165 29.107 146.352 0 49.937-9.785 98.919-29.083 145.58-12.824 30.979-29.259 59.813-48.903 85.815l132.609 132.976c9.663 9.349 15.045 21.979 15.159 35.575 0.112 13.552-5.25 26.678-14.718 36.037-9.349 9.857-22.648 15.508-36.516 15.508z" p-id="2523"></path><path d="M486.339 663.636c-9.416 0-18.007-5.451-22.247-14.208l-43.227-87.558-22.689 23.899c-1.871 2.093-4.075 3.8-6.277 4.958-3.415 2.146-8.204 3.468-12.885 3.468-8.646 0-16.741-4.35-21.531-11.73l-57.435-92.072-53.359 89.704c-3.689 7.71-12.556 13.163-22.192 13.163H97.73c-14.316 0-25.55-11.235-25.55-25.663 0-14.095 11.454-25.551 25.55-25.551h112.393l67.567-113.824c4.626-7.984 12.941-12.666 22.081-12.666 4.516 0 9.086 1.267 12.941 3.47 3.579 2.259 6.168 5.01 8.37 8.314l62.281 99.946 25.66-27.202c5.122-5.011 11.784-7.764 18.557-7.764 6.665 0 12.886 2.532 17.622 7.159 2.865 3.468 4.295 5.287 5.397 7.543l28.084 56.554 42.951-182.217c2.864-11.509 13.106-19.548 24.945-19.548l6.058 0.715c5.344 1.598 8.92 3.8 11.95 7.104l72.578 73.129c9.583 10.022 9.416 26.212-0.441 36.014-4.789 4.735-11.122 7.269-17.842 7.269-6.883 0-13.436-2.643-18.171-7.597l-40.199-40.476-49.063 205.951c-1.267 7.381-6.773 14.099-13.986 17.017-2.699 1.543-6.995 2.699-11.124 2.699z" p-id="2524"></path></svg>