<?xml version="1.0" standalone="no"?><!DOCTYPE svg PUBLIC "-//W3C//DTD SVG 1.1//EN" "http://www.w3.org/Graphics/SVG/1.1/DTD/svg11.dtd"><svg t="1616135142224" class="icon" viewBox="0 0 1024 1024" version="1.1" xmlns="http://www.w3.org/2000/svg" p-id="2238" xmlns:xlink="http://www.w3.org/1999/xlink" width="48" height="48"><defs><style type="text/css"></style></defs><path d="M816 624h-96V400h96c106.032 0 192-85.952 192-192S922.048 16 816 16 624 101.968 624 208v96H400v-96c0-106.048-85.968-192-192-192S16 101.968 16 208s85.968 192 192 192h96v224h-96C101.968 624 16 709.968 16 816c0 106.048 85.968 192 192 192s192-85.952 192-192v-96h224v96c0 106.048 85.952 192 192 192 106.032 0 192-85.952 192-192 0-106.032-85.968-192-192-192z m-96-416a96 96 0 1 1 96 96h-96v-96zM304 816a96 96 0 1 1-96-96h96v96z m0-512h-96a96 96 0 1 1 96-96v96z m320 320H400V400h224v224z m192 288a96 96 0 0 1-96-96v-96h112v1.616c45.36 7.648 80 46.848 80 94.384a96 96 0 0 1-96 96z" fill="" p-id="2239"></path></svg>