<?xml version="1.0" standalone="no"?><!DOCTYPE svg PUBLIC "-//W3C//DTD SVG 1.1//EN" "http://www.w3.org/Graphics/SVG/1.1/DTD/svg11.dtd"><svg t="1614305134461" class="icon" viewBox="0 0 1024 1024" version="1.1" xmlns="http://www.w3.org/2000/svg" p-id="1171" width="64" height="64" xmlns:xlink="http://www.w3.org/1999/xlink"><defs><style type="text/css"></style></defs><path d="M512 0A512 512 0 1 1 0 512 512 512 0 0 1 512 0z m167.992889 284.444444l-135.395556 274.944a259.948089 259.948089 0 0 0 52.736 24.462223l62.407111 21.276444c31.744 10.581333 49.208889 22.300444 49.208889 45.681778s-20.707556 35.726222-56.604444 31.061333c-48.128-6.371556-92.387556-25.372444-143.36-50.403555L455.111111 741.034667Q562.289778 796.444444 658.659556 796.444444C780.060444 796.444444 853.333333 731.591111 853.333333 629.532444c0-74.410667-39.367111-113.777778-125.781333-143.473777l-58.026667-20.195556c-31.744-10.638222-48.128-18.090667-48.128-41.415111 0-21.333333 19.456-28.16 54.442667-28.16a352.324267 352.324267 0 0 1 137.102222 34.816l27.591111-112.184889A441.628444 441.628444 0 0 0 679.992889 284.444444z m-354.076445 0H170.666667l219.192889 512h13.937777L625.777778 284.444444H473.6L398.222222 468.252444 325.973333 284.444444z" p-id="1172"></path></svg>