<?xml version="1.0" standalone="no"?><!DOCTYPE svg PUBLIC "-//W3C//DTD SVG 1.1//EN" "http://www.w3.org/Graphics/SVG/1.1/DTD/svg11.dtd"><svg t="1615341423570" class="icon" viewBox="0 0 1024 1024" version="1.1" xmlns="http://www.w3.org/2000/svg" p-id="8050" xmlns:xlink="http://www.w3.org/1999/xlink" width="48" height="48"><defs><style type="text/css"></style></defs><path d="M960 896a448 448 0 0 0-282.88-416A448 448 0 0 0 954.88 128H960a64 64 0 0 0 0-128H64a64 64 0 0 0 0 128h5.12a448 448 0 0 0 277.76 352A448 448 0 0 0 64 896a64 64 0 0 0 0 128h896a64 64 0 0 0 0-128zM198.4 128h627.2a320 320 0 0 1-627.2 0zM192 896a320 320 0 0 1 640 0z" fill="" p-id="8051"></path></svg>