<?xml version="1.0" standalone="no"?><!DOCTYPE svg PUBLIC "-//W3C//DTD SVG 1.1//EN" "http://www.w3.org/Graphics/SVG/1.1/DTD/svg11.dtd"><svg t="1719486796396" class="icon" viewBox="0 0 1024 1024" version="1.1" xmlns="http://www.w3.org/2000/svg" p-id="8261" xmlns:xlink="http://www.w3.org/1999/xlink" width="128" height="128"><path d="M917.857524 1024H246.406095c-61.44 0-101.668571-109.714286-101.668571-109.714286l0.438857-73.167238 31.597714 2.29181c72.411429 0 72.557714-75.410286 72.557715-75.410286 0-73.142857-70.070857-75.434667-70.070858-75.434667H144.274286l0.609524-143.969523 33.03619-0.024381c65.828571 0 72.557714-70.875429 72.557714-70.875429 0-77.702095-72.265143-77.702095-72.265143-77.702095H145.468952l-0.731428-143.993905 33.304381-2.121143c72.411429 0 71.68-73.289143 71.68-73.289143 0-66.29181-69.87581-73.142857-69.87581-73.142857h-35.108571V36.571429c0-20.187429 15.701333-36.571429 35.108571-36.571429h630.467048c19.407238 0 35.132952 16.384 35.132952 36.571429l70.217143 2.291809c28.525714 0 35.08419 36.571429 35.084191 36.571429v914.285714c0 27.428571-32.889905 34.279619-32.889905 34.279619z m-142.628572-768H318.793143v292.571429h456.435809v-292.571429z m106.422858-173.714286l-36.205715-12.580571v806.473143c0 20.21181-15.725714 36.59581-35.132952 36.595809l-597.942857 0.365715C212.370286 938.276571 248.600381 950.857143 248.600381 950.857143h596.845714c37.302857 0 36.205714-34.279619 36.205715-34.279619V82.285714zM406.588952 329.142857h280.868572c9.679238 0 17.554286 8.192 17.554286 18.285714s-7.875048 18.285714-17.554286 18.285715h-280.868572c-9.703619 0-17.554286-8.192-17.554285-18.285715s7.850667-18.285714 17.554285-18.285714z m0 109.714286h280.868572c9.679238 0 17.554286 8.192 17.554286 18.285714s-7.875048 18.285714-17.554286 18.285714h-280.868572c-9.703619 0-17.554286-8.192-17.554285-18.285714s7.850667-18.285714 17.554285-18.285714zM213.49181 182.857143c0 20.187429-15.725714 36.571429-35.108572 36.571428h-70.217143c-19.407238 0-35.108571-16.384-35.108571-36.571428 0-20.21181 15.701333-36.571429 35.108571-36.571429h70.217143c19.382857 0 35.108571 16.359619 35.108572 36.571429z m-138.971429 292.571428c0-20.187429 15.701333-36.571429 35.108571-36.571428h68.754286c19.382857 0 35.108571 16.384 35.108572 36.571428S197.766095 512 178.383238 512h-68.754286c-19.407238 0-35.108571-16.384-35.108571-36.571429zM108.166095 731.428571h70.217143c19.382857 0 35.108571 16.359619 35.108572 36.571429 0 20.187429-15.725714 36.571429-35.108572 36.571429h-70.217143c-19.407238 0-35.108571-16.384-35.108571-36.571429 0-20.21181 15.701333-36.571429 35.108571-36.571429z" fill="" p-id="8262"></path></svg>