<?xml version="1.0" standalone="no"?><!DOCTYPE svg PUBLIC "-//W3C//DTD SVG 1.1//EN" "http://www.w3.org/Graphics/SVG/1.1/DTD/svg11.dtd"><svg t="1615723016997" class="icon" viewBox="0 0 1024 1024" version="1.1" xmlns="http://www.w3.org/2000/svg" p-id="2314" xmlns:xlink="http://www.w3.org/1999/xlink" width="48" height="48"><defs><style type="text/css"></style></defs><path d="M174.9 299.2m-91.4 0a91.4 91.4 0 1 0 182.8 0 91.4 91.4 0 1 0-182.8 0Z" fill="#2DCD54" p-id="2315"></path><path d="M174.9 207.9c-37.8 0-70.3 23-84.2 55.8 15.2-11.2 33.9-17.8 54.2-17.8 50.5 0 91.4 40.9 91.4 91.4 0 12.6-2.6 24.6-7.2 35.6 22.6-16.6 37.2-43.4 37.2-73.6 0-50.5-40.9-91.4-91.4-91.4z" fill="#31B952" p-id="2316"></path><path d="M174.9 410.6c-61.4 0-111.4-50-111.4-111.4 0-61.4 50-111.4 111.4-111.4s111.4 50 111.4 111.4c0 61.5-50 111.4-111.4 111.4z m0-182.7c-39.4 0-71.4 32-71.4 71.4 0 39.4 32 71.4 71.4 71.4s71.4-32 71.4-71.4c0-39.4-32-71.4-71.4-71.4z" fill="#202D47" p-id="2317"></path><path d="M174.8 849.5m-91.4 0a91.4 91.4 0 1 0 182.8 0 91.4 91.4 0 1 0-182.8 0Z" fill="#227CE5" p-id="2318"></path><path d="M175.8 748.1c-36.1 0-67.3 21-82.2 51.4 13.1-7.2 28.1-11.4 44.2-11.4 50.5 0 91.4 40.9 91.4 91.4 0 14.3-3.3 27.9-9.2 40 28.1-15.6 47.2-45.6 47.2-80-0.1-50.5-41-91.4-91.4-91.4z" fill="#2571CB" p-id="2319"></path><path d="M174.8 960.8c-61.4 0-111.4-50-111.4-111.4 0-61.4 50-111.4 111.4-111.4s111.4 50 111.4 111.4c-0.1 61.5-50 111.4-111.4 111.4z m0-182.7c-39.4 0-71.4 32-71.4 71.4s32 71.4 71.4 71.4 71.4-32 71.4-71.4-32.1-71.4-71.4-71.4z" fill="#202D47" p-id="2320"></path><path d="M849.2 847.9m-91.4 0a91.4 91.4 0 1 0 182.8 0 91.4 91.4 0 1 0-182.8 0Z" fill="#2DCD54" p-id="2321"></path><path d="M849.2 756.5c-32.9 0-61.8 17.4-77.9 43.5 13.9-8.6 30.3-13.5 47.9-13.5 50.5 0 91.4 40.9 91.4 91.4 0 17.5-4.9 33.9-13.5 47.9 26.1-16.1 43.5-44.9 43.5-77.9 0-50.5-40.9-91.4-91.4-91.4z" fill="#31B952" p-id="2322"></path><path d="M849.2 959.2c-61.4 0-111.4-50-111.4-111.4 0-61.4 50-111.4 111.4-111.4s111.4 50 111.4 111.4c0 61.5-49.9 111.4-111.4 111.4z m0-182.7c-39.4 0-71.4 32-71.4 71.4s32 71.4 71.4 71.4 71.4-32 71.4-71.4-32-71.4-71.4-71.4z" fill="#202D47" p-id="2323"></path><path d="M846.1 458m-91.4 0a91.4 91.4 0 1 0 182.8 0 91.4 91.4 0 1 0-182.8 0Z" fill="#227CE5" p-id="2324"></path><path d="M837.1 401.2c48.5 14 76.5 64.6 62.5 113.1-2 6.9-4.7 13.4-8.1 19.5 17.9-11.5 31.8-29.3 38.1-51.4 14-48.5-14-99.1-62.5-113.1-41.6-12-84.7 6.9-105 43 21.5-13.9 48.5-18.7 75-11.1z" fill="#2571CB" p-id="2325"></path><path d="M846.1 569.4c-61.4 0-111.4-50-111.4-111.4 0-61.4 50-111.4 111.4-111.4 61.4 0 111.4 50 111.4 111.4 0 61.4-50 111.4-111.4 111.4z m0-182.8c-39.4 0-71.4 32-71.4 71.4 0 39.4 32 71.4 71.4 71.4s71.4-32 71.4-71.4c0-39.4-32-71.4-71.4-71.4z" fill="#202D47" p-id="2326"></path><path d="M516.9 174.5m-91.4 0a91.4 91.4 0 1 0 182.8 0 91.4 91.4 0 1 0-182.8 0Z" fill="#227CE5" p-id="2327"></path><path d="M516.9 83.2c-35.8 0-66.7 20.5-81.7 50.5 15.1-11 33.6-17.5 53.7-17.5 50.5 0 91.4 40.9 91.4 91.4 0 14.7-3.5 28.6-9.7 40.9C593.4 231.9 608.3 205 608.3 174.6c0-50.5-41-91.4-91.4-91.4z" fill="#2571CB" p-id="2328"></path><path d="M516.9 285.9c-61.4 0-111.4-50-111.4-111.4 0-61.4 50-111.4 111.4-111.4 61.4 0 111.4 50 111.4 111.4 0 61.4-50 111.4-111.4 111.4z m0-182.7c-39.4 0-71.4 32-71.4 71.4 0 39.4 32 71.4 71.4 71.4s71.4-32 71.4-71.4c0-39.4-32.1-71.4-71.4-71.4z" fill="#202D47" p-id="2329"></path><path d="M512.5 518.6m-158.7 0a158.7 158.7 0 1 0 317.4 0 158.7 158.7 0 1 0-317.4 0Z" fill="#FFFFFF" p-id="2330"></path><path d="M512.5 518.6m-158.7 0a158.7 158.7 0 1 0 317.4 0 158.7 158.7 0 1 0-317.4 0Z" fill="#FFFFFF" p-id="2331"></path><path d="M512.5 359.8c-30.5 0-58.9 8.6-83.1 23.5 10.7-2.3 21.7-3.5 33.1-3.5 87.7 0 158.7 71.1 158.7 158.7 0 57.2-30.3 107.3-75.6 135.3 71.8-15.2 125.6-78.9 125.6-155.3 0-87.6-71.1-158.7-158.7-158.7z" fill="#EEEEEE" p-id="2332"></path><path d="M512.5 697.3c-98.5 0-178.7-80.2-178.7-178.7S414 339.9 512.5 339.9c98.6 0 178.7 80.2 178.7 178.7S611 697.3 512.5 697.3z m0-317.5c-76.5 0-138.7 62.2-138.7 138.7 0 76.5 62.2 138.7 138.7 138.7S651.2 595 651.2 518.5c0-76.4-62.2-138.7-138.7-138.7z" fill="#202D47" p-id="2333"></path><path d="M245.4 347.6l141.9 93.2" fill="#227CE5" p-id="2334"></path><path d="M256.44 330.888l141.936 93.203-21.956 33.436-141.936-93.203z" fill="#202D47" p-id="2335"></path><path d="M662.1 487l92.7-13.2" fill="#227CE5" p-id="2336"></path><path d="M751.996 454.016l5.648 39.6-92.664 13.217-5.648-39.6z" fill="#202D47" p-id="2337"></path><path d="M512.5 347.6V252.1" fill="#227CE5" p-id="2338"></path><path d="M492.5 252.1h40v95.5h-40z" fill="#202D47" p-id="2339"></path><path d="M387.3 636.3L249.7 770.4" fill="#227CE5" p-id="2340"></path><path d="M373.403 621.898l27.912 28.652-137.602 134.047-27.912-28.652z" fill="#202D47" p-id="2341"></path><path d="M638.9 637.8l160.1 160" fill="#227CE5" p-id="2342"></path><path d="M652.995 623.58l160.087 160.088-28.284 28.284-160.087-160.088z" fill="#202D47" p-id="2343"></path></svg>